<?xml version="1.0" encoding="UTF-8"?>
<svg id="Layer_2" xmlns="http://www.w3.org/2000/svg" viewBox="0 0 84.82 129.04">
  <defs>
    <style>
      .cls-1 {
        fill: #ec008c;
      }

      .cls-2 {
        fill: #fff;
        stroke: #ec008c;
        stroke-miterlimit: 10;
        stroke-width: 5px;
      }
    </style>
  </defs>
  <g id="Layer_1-2" data-name="Layer_1">
    <g>
      <path class="cls-1" d="M42.64,129.04c-1.38,0-2.5-1.58-2.5-3.53v-39.5c0-1.95,1.12-3.53,2.5-3.53s2.5,1.58,2.5,3.53v39.5c0,1.95-1.12,3.53-2.5,3.53Z"/>
      <g>
        <path class="cls-2" d="M21.16,33.87c2.48-.17,4.88.11,7.12.73-.04-.54-.06-1.09-.06-1.64,0-5.41,1.86-10.45,4.24-14.68-7-4.37-14.28-5.71-14.28-5.71,0,0-4.39,11.26-2.9,22.45,1.86-.7,3.84-1.12,5.89-1.15h0Z"/>
        <path class="cls-2" d="M56.55,34.48c2.27-.63,4.71-.9,7.24-.71h0c2.27.05,4.45.58,6.48,1.44,1.53-10.95-2.43-21.91-2.43-21.91,0,0-7.77,1.19-15.08,5.68,2.18,4.08,3.85,8.86,3.85,13.98,0,.51-.02,1.02-.05,1.52Z"/>
        <path class="cls-2" d="M28.28,34.6c7.6,2.13,13.3,8.46,13.78,16.34l.2,3.35h.27s.24-3.6.24-3.6c.53-7.83,6.21-14.1,13.77-16.2.03-.5.05-1.01.05-1.52,0-5.11-1.66-9.9-3.85-13.98-4.2-7.85-10.35-15.1-10.35-15.1,0,0-5.77,6.94-9.96,14.4-2.37,4.23-4.24,9.27-4.24,14.68,0,.55.02,1.1.06,1.64Z"/>
        <path class="cls-2" d="M42.4,56.31l.14-2.02h-.27s.14,2.28.14,2.28l-10.03.7c-2.96.15-5.57,1.08-7.86,2.55-.12,1.09-.21,2.2-.21,3.34,0,12.82,8.1,21.22,18.1,21.22s18.1-8.39,18.1-21.22c0-1.18-.09-2.33-.22-3.46-2.29-1.49-4.89-2.44-7.85-2.61l-10.02-.78Z"/>
        <path class="cls-2" d="M42.4,56.56l-.14-2.27-.2-3.35c-.48-7.88-6.18-14.21-13.78-16.34-2.24-.63-4.63-.91-7.12-.73h0c-2.05.03-4.03.45-5.89,1.15-7.3,2.76-12.71,10.18-12.77,18.69,0,0-.1,14.37,1.07,26.64.46,4.81,6.46,5.55,7.79.96,2.37-8.13,6.41-17.18,13.14-21.5,2.29-1.47,4.9-2.4,7.86-2.55l10.03-.7Z"/>
        <path class="cls-2" d="M70.27,35.22c-2.03-.87-4.21-1.39-6.48-1.44h0c-2.53-.2-4.96.08-7.24.71-7.56,2.1-13.25,8.37-13.77,16.2l-.24,3.6-.14,2.02,10.02.78c2.96.17,5.56,1.12,7.85,2.61,6.71,4.37,10.69,13.45,13,21.6,1.31,4.6,7.31,3.91,7.8-.9,1.25-12.26,1.25-26.63,1.25-26.63,0-8.28-5.08-15.56-12.05-18.54Z"/>
      </g>
    </g>
  </g>
</svg>